<svg width="26" height="26" viewBox="0 0 26 26" fill="none" xmlns="http://www.w3.org/2000/svg">
<path d="M25.0418 0.958247C24.428 0.344682 23.5957 0 22.7278 0C21.86 0 21.0277 0.344682 20.4139 0.958247L8 13.3722V18H12.6278L25.0418 5.58606C25.6553 4.97231 26 4.14 26 3.27216C26 2.40431 25.6553 1.572 25.0418 0.958247Z" fill="#BEC0C3"/>
<path fill-rule="evenodd" clip-rule="evenodd" d="M0 6.28571C0 5.41429 0.346172 4.57855 0.962363 3.96236C1.57855 3.34617 2.41429 3 3.28571 3H9.85714C10.2929 3 10.7107 3.17309 11.0188 3.48118C11.3269 3.78928 11.5 4.20714 11.5 4.64286C11.5 5.07857 11.3269 5.49644 11.0188 5.80453C10.7107 6.11263 10.2929 6.28571 9.85714 6.28571H3.28571V22.7143H19.7143V16.1429C19.7143 15.7071 19.8874 15.2893 20.1955 14.9812C20.5036 14.6731 20.9214 14.5 21.3571 14.5C21.7929 14.5 22.2107 14.6731 22.5188 14.9812C22.8269 15.2893 23 15.7071 23 16.1429V22.7143C23 23.5857 22.6538 24.4214 22.0376 25.0376C21.4214 25.6538 20.5857 26 19.7143 26H3.28571C2.41429 26 1.57855 25.6538 0.962363 25.0376C0.346172 24.4214 0 23.5857 0 22.7143V6.28571Z" fill="#BEC0C3"/>
</svg>
