<svg width="42" height="42" viewBox="0 0 42 42" fill="none" xmlns="http://www.w3.org/2000/svg">
<mask id="mask0_187_243" style="mask-type:alpha" maskUnits="userSpaceOnUse" x="0" y="0" width="42" height="42">
<rect width="41.7007" height="41.7007" fill="#D9D9D9"/>
</mask>
<g mask="url(#mask0_187_243)">
<path d="M10.4252 19.9816V10.4252H19.9816V19.9816H10.4252ZM10.4252 31.2755V21.7191H19.9816V31.2755H10.4252ZM21.7192 19.9816V10.4252H31.2756V19.9816H21.7192ZM21.7192 31.2755V21.7191H31.2756V31.2755H21.7192ZM13.9003 16.5065H16.5066V13.9002H13.9003V16.5065ZM25.1942 16.5065H27.8005V13.9002H25.1942V16.5065ZM13.9003 27.8005H16.5066V25.1942H13.9003V27.8005ZM25.1942 27.8005H27.8005V25.1942H25.1942V27.8005ZM8.6877 36.4881C7.73206 36.4881 6.91398 36.1478 6.23344 35.4673C5.55291 34.7868 5.21265 33.9687 5.21265 33.013V8.68764C5.21265 7.732 5.55291 6.91392 6.23344 6.23338C6.91398 5.55285 7.73206 5.21259 8.6877 5.21259H33.0131C33.9687 5.21259 34.7868 5.55285 35.4674 6.23338C36.1479 6.91392 36.4882 7.732 36.4882 8.68764V33.013C36.4882 33.9687 36.1479 34.7868 35.4674 35.4673C34.7868 36.1478 33.9687 36.4881 33.0131 36.4881H8.6877ZM8.6877 33.013H33.0131V8.68764H8.6877V33.013Z" fill="#999999"/>
</g>
</svg>
